<?xml version="1.0" standalone="no"?>
<!DOCTYPE svg PUBLIC "-//W3C//DTD SVG 20010904//EN"
 "http://www.w3.org/TR/2001/REC-SVG-20010904/DTD/svg10.dtd">
<svg version="1.0" xmlns="http://www.w3.org/2000/svg"
 width="750.000000pt" height="750.000000pt" viewBox="0 0 750.000000 750.000000"
 preserveAspectRatio="xMidYMid meet">
<metadata>
Created by potrace 1.11, written by Peter Selinger 2001-2013
</metadata>
<g transform="translate(0.000000,750.000000) scale(0.100000,-0.100000)"
fill="#000000" stroke="none">
<path d="M0 3750 l0 -3750 3750 0 3750 0 0 3750 0 3750 -3750 0 -3750 0 0
-3750z m4095 878 c53 -26 70 -59 86 -169 7 -46 16 -89 21 -96 13 -16 12 -82
-1 -116 -6 -15 -21 -32 -35 -38 -24 -12 -36 -44 -36 -101 0 -21 10 -39 31 -59
30 -28 142 -89 164 -89 32 0 161 -136 185 -195 4 -11 19 -45 33 -75 14 -31 38
-118 54 -195 27 -134 28 -152 28 -425 0 -209 4 -297 13 -329 16 -52 12 -88
-16 -156 -12 -27 -24 -62 -27 -77 -7 -36 -31 -58 -64 -58 l-27 0 -11 -131
c-10 -113 -14 -134 -34 -155 -12 -13 -28 -24 -35 -24 -7 0 -25 -12 -39 -26
-17 -17 -34 -24 -52 -22 -25 3 -26 1 -29 -57 -16 -318 -48 -556 -114 -850 -11
-49 -27 -133 -35 -185 -9 -52 -22 -120 -30 -150 -8 -30 -16 -66 -19 -80 -3
-14 -18 -33 -35 -43 -26 -15 -28 -20 -21 -49 8 -37 69 -187 94 -233 35 -66 7
-162 -56 -193 -43 -20 -125 -18 -156 5 -49 37 -65 68 -69 140 -3 37 -9 72 -14
78 -5 5 -9 33 -9 63 0 46 -2 53 -17 48 -10 -3 -40 -10 -68 -17 -62 -15 -78
-22 -140 -69 -78 -58 -118 -70 -206 -60 -87 10 -117 20 -143 49 -18 20 -18 21
2 65 19 39 32 50 119 97 122 65 126 68 113 84 -12 15 12 45 35 45 11 0 12 5 5
23 -5 12 -19 130 -30 261 -12 132 -28 263 -36 290 -20 75 -37 532 -31 821 3
138 8 260 11 272 2 12 0 53 -5 90 -22 167 -32 148 -35 -65 -2 -232 -1 -226
-48 -230 -29 -3 -44 2 -63 20 -48 44 -63 93 -63 213 0 130 -5 155 -31 155 -28
0 -41 45 -36 120 13 166 59 509 88 645 29 141 78 295 119 375 44 85 177 201
253 220 23 6 79 22 125 36 91 27 101 42 58 83 -40 37 -56 83 -56 155 0 45 -4
66 -12 66 -9 0 -9 3 0 12 20 20 15 56 -10 60 -32 5 -33 24 0 53 16 14 34 43
41 64 16 55 47 90 105 118 43 20 60 23 109 18 33 -3 78 -16 102 -27z"/>
<path d="M3907 4626 c-44 -16 -83 -49 -103 -87 l-13 -26 82 -8 c226 -19 277
-57 277 -205 0 -70 10 -87 30 -51 15 29 13 102 -2 96 -10 -4 -14 14 -15 68 -3
108 -21 156 -68 189 -50 34 -133 44 -188 24z"/>
<path d="M3796 4466 c-21 -8 -46 -22 -55 -30 -14 -15 -13 -16 13 -16 25 0 27
-3 22 -24 -5 -22 -3 -23 36 -23 25 0 46 -6 52 -15 6 -8 22 -14 36 -13 20 3 25
-2 26 -22 3 -45 58 -68 88 -37 38 37 0 91 -56 80 -23 -4 -29 -3 -18 4 24 16
69 11 86 -8 13 -15 24 -17 60 -12 56 9 58 -3 2 -16 -31 -6 -44 -15 -47 -29 -5
-32 -21 -45 -57 -45 -35 0 -59 17 -69 50 -8 26 -35 26 -35 0 0 -11 -9 -29 -21
-41 -16 -16 -28 -19 -54 -15 l-33 7 9 -38 c5 -21 9 -41 9 -45 0 -4 13 -22 29
-40 15 -18 36 -48 45 -65 16 -31 20 -33 72 -33 68 0 112 18 147 59 31 38 44
80 53 179 6 60 4 78 -11 106 -16 30 -25 35 -64 39 -25 3 -71 14 -101 25 -80
29 -120 34 -164 18z"/>
<path d="M4000 4456 c14 -8 36 -15 50 -16 37 0 12 17 -35 25 -39 6 -39 6 -15
-9z"/>
<path d="M3770 4330 c0 -71 81 -89 88 -20 4 38 -9 50 -55 50 -30 0 -33 -3 -33
-30z"/>
<path d="M4098 4078 c-15 -37 -144 -73 -206 -56 -19 5 -36 7 -39 5 -2 -3 5
-23 16 -45 16 -32 28 -41 66 -52 134 -38 271 28 211 101 -11 15 -26 35 -32 45
-9 15 -11 16 -16 2z"/>
<path d="M3800 4021 c-8 -5 -55 -19 -104 -31 -96 -24 -124 -39 -198 -109 -53
-50 -62 -85 -28 -116 11 -10 22 -26 25 -36 14 -45 25 -13 23 66 -1 46 1 87 5
91 4 4 7 -72 7 -169 0 -165 12 -277 29 -277 5 0 15 44 23 98 10 62 16 83 17
57 1 -66 -27 -237 -64 -388 -19 -78 -41 -198 -50 -267 -8 -69 -18 -140 -21
-157 -12 -62 5 -33 36 63 17 53 33 122 37 155 3 32 10 59 15 59 23 0 -21 -189
-68 -299 -35 -78 -30 -166 8 -166 8 0 23 -10 34 -21 17 -17 39 -23 115 -28 52
-4 132 -18 179 -31 47 -12 112 -25 145 -29 33 -3 79 -13 103 -21 23 -8 53 -13
66 -9 13 3 39 1 58 -4 83 -23 144 22 113 84 -17 35 -9 114 11 114 11 0 14 17
13 68 -1 70 -15 202 -18 167 0 -11 -4 -15 -10 -10 -4 6 -5 46 0 90 4 44 15
154 24 245 9 91 20 246 25 345 5 99 9 183 9 188 1 4 5 7 10 7 6 0 7 -38 4 -92
l-6 -93 24 21 c13 11 49 36 79 54 30 19 57 35 58 36 5 3 -50 104 -80 147 -36
53 -90 95 -174 136 l-78 38 -21 -31 c-11 -17 -36 -39 -55 -48 -61 -31 -208
-21 -248 17 -7 7 -19 29 -27 51 -14 42 -22 48 -45 35z m459 -1077 c11 -66 29
-144 39 -172 11 -29 16 -52 11 -52 -4 0 -18 30 -29 68 -23 76 -69 349 -61 358
3 3 9 -14 13 -38 4 -23 16 -97 27 -164z"/>
<path d="M3408 3788 c-47 -85 -88 -210 -123 -374 -42 -192 -44 -209 -60 -373
-8 -86 -20 -178 -25 -204 -13 -64 -13 -174 1 -182 6 -4 26 -4 45 0 25 4 34 10
30 20 -3 8 -1 17 3 20 5 2 11 -5 14 -16 5 -19 10 -21 52 -14 37 5 46 4 43 -7
-3 -9 -27 -14 -72 -16 l-68 -3 6 -31 c3 -17 6 -46 6 -65 l0 -35 48 7 c98 14
95 11 87 72 -6 48 -4 58 15 78 22 24 27 46 55 275 9 69 34 198 56 288 31 125
38 166 29 177 -20 25 -40 118 -40 193 0 67 -3 78 -35 126 -19 29 -35 60 -35
70 0 23 -17 20 -32 -6z m-18 -967 c-6 -12 -15 -21 -20 -21 -5 0 -25 -16 -45
-35 -22 -23 -35 -30 -35 -21 0 8 16 28 36 43 20 15 44 36 52 45 20 22 27 16
12 -11z"/>
<path d="M4467 3619 c-37 -22 -73 -50 -81 -62 -7 -12 -16 -58 -20 -102 -3 -44
-14 -154 -23 -245 -20 -187 -20 -339 0 -398 10 -29 12 -56 6 -102 -6 -40 -5
-68 2 -81 13 -25 3 -41 -22 -34 -20 7 -25 -8 -13 -40 5 -11 9 -13 14 -5 5 8
18 4 44 -14 41 -27 136 -66 164 -66 21 0 44 35 49 74 2 17 13 48 24 71 25 47
27 90 5 114 -13 15 -15 51 -10 265 5 259 -2 364 -37 533 -30 145 -23 138 -102
92z"/>
<path d="M3472 2519 c4 -33 5 -65 2 -71 -10 -15 27 -48 55 -48 14 0 78 -13
141 -29 137 -34 326 -63 506 -77 l81 -6 7 59 c4 32 9 65 11 73 4 12 -13 15
-98 18 -56 2 -121 9 -145 17 -23 8 -59 15 -80 15 -20 0 -80 12 -132 26 -52 15
-137 30 -188 34 -59 5 -99 13 -110 23 -9 8 -26 17 -38 21 -20 6 -20 4 -12 -55z"/>
<path d="M4316 2464 c-25 -55 -27 -67 -15 -75 15 -9 93 -33 147 -44 l32 -7 0
45 c0 25 2 51 5 59 4 9 -14 23 -54 41 -33 15 -63 32 -66 37 -12 19 -20 9 -49
-56z"/>
<path d="M3324 2497 l-62 -9 -5 -40 c-8 -57 17 -131 54 -162 31 -26 69 -35 69
-16 0 6 -5 10 -10 10 -16 0 -50 62 -50 93 0 31 28 80 41 71 5 -3 9 -34 9 -70
0 -50 3 -64 15 -64 12 0 15 18 15 100 0 55 -3 99 -7 99 -5 -1 -36 -6 -69 -12z"/>
<path d="M3340 2375 c0 -14 2 -25 4 -25 2 0 6 11 8 25 3 14 1 25 -3 25 -5 0
-9 -11 -9 -25z"/>
<path d="M3466 2337 c-8 -78 -8 -409 1 -620 5 -139 8 -164 21 -160 11 5 13 1
6 -18 -18 -48 -10 -151 14 -200 26 -54 30 -84 5 -54 -15 19 -15 19 -8 -10 4
-16 15 -117 24 -223 l16 -194 30 -16 c45 -25 213 -22 233 5 15 19 12 162 -9
503 -9 157 -5 342 11 460 28 206 55 370 61 370 8 0 16 -60 29 -235 6 -77 18
-171 27 -210 25 -117 30 -150 22 -177 -4 -14 -10 -77 -14 -139 -4 -63 -15
-154 -26 -204 -22 -110 -39 -241 -39 -313 0 -48 4 -58 34 -88 29 -29 41 -34
83 -34 26 0 58 3 70 6 30 8 51 66 75 209 10 66 28 158 39 205 24 102 74 373
84 449 3 30 10 114 15 186 5 72 12 154 15 182 6 44 5 53 -16 72 -20 18 -21 25
-12 40 10 16 9 20 -3 25 -12 5 -15 18 -12 58 l3 53 -70 8 c-243 26 -357 43
-465 69 -47 11 -119 28 -161 38 l-76 17 -7 -60z"/>
<path d="M4280 2344 c-6 -14 -10 -45 -10 -69 0 -24 -4 -55 -10 -69 -11 -31 0
-40 26 -22 14 11 19 29 21 73 1 32 2 60 3 63 0 3 5 -2 10 -10 23 -36 5 -137
-32 -177 -15 -17 -18 -23 -7 -23 26 0 61 32 76 69 9 20 18 31 20 24 2 -6 -5
-30 -17 -52 -11 -23 -16 -41 -11 -41 17 0 61 61 61 86 0 28 16 32 23 7 3 -10
5 -3 6 15 1 21 5 31 12 26 6 -3 8 -18 5 -33 -5 -19 -4 -22 4 -11 5 8 10 38 10
67 l0 52 -37 7 c-21 4 -62 15 -91 25 l-53 18 -9 -25z"/>
<path d="M3858 2020 c-4 -30 -13 -107 -21 -170 -24 -184 -28 -345 -16 -583 14
-282 26 -434 28 -357 2 85 20 229 37 293 14 56 27 164 40 348 5 65 3 98 -9
135 -15 44 -22 96 -45 319 l-8 70 -6 -55z"/>
<path d="M3552 813 c4 -23 65 -52 136 -65 53 -10 63 -9 92 8 37 21 64 71 33
60 -10 -4 -54 -10 -98 -13 -61 -4 -90 -1 -119 11 -47 20 -48 20 -44 -1z"/>
<path d="M3862 794 c3 -32 9 -39 52 -62 43 -23 52 -24 85 -13 56 19 79 32 86
49 4 11 2 12 -7 5 -7 -6 -32 -13 -56 -17 -49 -7 -99 10 -138 49 l-25 25 3 -36z"/>
<path d="M3795 739 c-31 -15 -52 -18 -98 -14 l-57 6 5 -29 c3 -20 -1 -37 -13
-52 -17 -21 -18 -21 -35 -2 -16 17 -23 18 -54 9 -45 -14 -103 -67 -103 -94 0
-18 5 -20 48 -16 49 5 157 40 277 92 50 21 75 38 88 60 17 27 17 32 4 46 -9 8
-17 15 -19 14 -2 0 -21 -9 -43 -20z"/>
<path d="M3531 706 c-42 -43 -114 -86 -144 -86 -21 0 -67 -21 -67 -30 0 -12
95 -40 98 -30 13 38 55 79 105 104 50 25 57 32 57 57 0 16 -1 29 -3 29 -2 0
-22 -20 -46 -44z"/>
<path d="M3600 711 c0 -22 4 -42 9 -45 11 -7 20 39 14 65 -9 33 -23 21 -23
-20z"/>
<path d="M3895 698 c12 -15 26 -23 37 -20 23 6 23 18 1 25 -10 2 -27 8 -37 13
-19 7 -19 7 -1 -18z"/>
<path d="M3867 694 c-4 -4 -7 -32 -7 -63 l1 -56 19 39 c11 22 20 42 20 46 0
14 -26 41 -33 34z"/>
<path d="M3981 691 c-12 -8 -12 -12 -2 -25 16 -19 31 -12 31 15 0 21 -7 23
-29 10z"/>
<path d="M4020 654 c0 -12 7 -27 15 -34 19 -16 19 -3 0 30 -13 24 -14 24 -15
4z"/>
<path d="M3780 624 c-215 -95 -291 -113 -385 -87 -33 9 -68 23 -77 31 -16 13
-18 12 -28 -12 -24 -65 -3 -81 125 -96 82 -10 112 0 189 60 30 23 79 47 121
60 97 30 115 38 115 50 0 14 -19 12 -60 -6z"/>
<path d="M3940 602 c0 -15 11 -62 25 -105 19 -58 23 -82 15 -96 -5 -11 -10
-24 -10 -29 0 -15 53 -31 84 -25 28 6 46 23 23 23 -14 0 -42 60 -53 115 -3 17
-14 42 -25 55 -19 25 -19 25 -3 -23 15 -43 14 -70 -2 -55 -9 10 -34 111 -34
141 0 15 -4 27 -10 27 -5 0 -10 -12 -10 -28z"/>
<path d="M3995 593 c26 -61 55 -84 55 -44 0 21 -46 81 -61 81 -5 0 -2 -17 6
-37z"/>
<path d="M3910 575 c0 -14 -6 -40 -14 -58 -16 -40 -10 -89 15 -116 39 -42 56
-22 49 59 -2 28 -19 64 -20 42 0 -8 -5 -12 -12 -10 -8 3 -11 23 -9 56 1 29 0
52 -3 52 -3 0 -6 -11 -6 -25z"/>
<path d="M3871 553 c-7 -18 -11 -38 -8 -45 6 -17 29 40 25 61 -2 10 -8 4 -17
-16z"/>
<path d="M4065 531 c-3 -12 -13 -21 -21 -21 -18 0 -10 -39 22 -95 28 -50 48
-52 52 -5 4 47 -43 153 -53 121z"/>
<path d="M3890 361 c0 -24 9 -42 35 -68 34 -34 38 -35 95 -31 68 5 105 30 119
82 11 43 3 51 -20 22 -30 -38 -87 -50 -141 -30 -24 10 -53 26 -65 37 l-23 20
0 -32z"/>
</g>
</svg>
